HIERARCHY
ROOT hip
{
	OFFSET 0.000000 0.000000 0.000000 
	CHANNELS 6 Xposition Yposition Zposition Xrotation Zrotation Yrotation
	JOINT abdomen
	{
		OFFSET 0.000000 3.402643 0.000000 
		CHANNELS 3 Xrotation Zrotation Yrotation
		JOINT chest
		{
			OFFSET 0.000000 8.438565 -0.680529 
			CHANNELS 3 Xrotation Zrotation Yrotation
			JOINT neck
			{
				OFFSET 0.000000 10.207942 -0.272212 
				CHANNELS 3 Xrotation Zrotation Yrotation
				JOINT head
				{
					OFFSET 0.000000 3.130431 0.000000 
					CHANNELS 3 Xrotation Zrotation Yrotation
					End Site
					{
						OFFSET 0.000000 3.130435 0.000000 
					}
				}
			}
			JOINT lCollar
			{
				OFFSET 3.470700 6.669187 -0.816635 
				CHANNELS 3 Yrotation Zrotation Xrotation
				JOINT lShldr
				{
					OFFSET 3.198488 0.000000 0.000000 
					CHANNELS 3 Zrotation Yrotation Xrotation
					JOINT lForeArm
					{
						OFFSET 10.139888 0.000000 0.000000 
						CHANNELS 3 Yrotation Zrotation Xrotation
						JOINT lHand
						{
							OFFSET 8.370511 0.000000 0.000000 
							CHANNELS 3 Zrotation Yrotation Xrotation
							End Site
							{
								OFFSET 4.083176 0.000000 0.000000 
							}
						}
					}
				}
			}
			JOINT rCollar
			{
				OFFSET -3.470700 6.669187 -0.816635 
				CHANNELS 3 Yrotation Zrotation Xrotation
				JOINT rShldr
				{
					OFFSET -3.198488 0.000000 0.000000 
					CHANNELS 3 Zrotation Yrotation Xrotation
					JOINT rForeArm
					{
						OFFSET -10.139888 0.000000 0.000000 
						CHANNELS 3 Yrotation Zrotation Xrotation
						JOINT rHand
						{
							OFFSET -8.370511 0.000000 0.000000 
							CHANNELS 3 Zrotation Yrotation Xrotation
							End Site
							{
								OFFSET -4.083176 0.000000 0.000000 
							}
						}
					}
				}
			}
		}
	}
	JOINT lThigh
	{
		OFFSET 5.308129 -1.633274 1.361059 
		CHANNELS 3 Xrotation Zrotation Yrotation
		JOINT lShin
		{
			OFFSET -2.041588 -20.007561 0.000000 
			CHANNELS 3 Xrotation Zrotation Yrotation
			JOINT lFoot
			{
				OFFSET 0.000000 -19.190928 -1.224953 
				CHANNELS 3 Xrotation Yrotation Zrotation
				End Site
				{
					OFFSET 0.000000 -2.449906 4.627600 
				}
			}
		}
	}
	JOINT rThigh
	{
		OFFSET -5.308129 -1.633274 1.361059 
		CHANNELS 3 Xrotation Zrotation Yrotation
		JOINT rShin
		{
			OFFSET 2.041588 -20.007561 0.000000 
			CHANNELS 3 Xrotation Zrotation Yrotation
			JOINT rFoot
			{
				OFFSET 0.000000 -19.190928 -1.224953 
				CHANNELS 3 Xrotation Yrotation Zrotation
				End Site
				{
					OFFSET 0.000000 -2.449906 4.627600 
				}
			}
		}
	}
}
MOTION
Frames: 6
Frame Time: 0.033333
8.856312 51.568943 -47.483971 173.828140 -176.513672 7.030656 22.087626 -9.694659 -5.621735 -17.851563 3.691406 0.674457 51.063168 8.107644 2.471410 -59.511726 -50.644524 -25.156250 2.000000 -2.000000 0.000000 -65.937500 0.527344 -20.029234 -51.279079 -1.637565 -1.964265 14.267095 64.505898 -1.218395 -2.000000 2.000000 0.000000 85.917969 -33.828125 -42.402344 133.259811 -2.484798 -2.566437 8.353120 -39.262840 -22.170897 -1.200724 -4.646478 9.112636 17.566584 -5.637470 -1.670777 -13.184767 14.995344 -3.248895 5.350734 -27.051023 -43.067417 18.999899 4.382495 1.709525 0.224246 -7.068492 23.198057 
8.889287 51.568943 -47.465450 173.652359 -176.708984 6.493579 22.024315 -9.711456 -5.243930 -17.861328 3.525391 0.810547 51.063168 8.107644 2.471410 -59.365238 -50.126953 -25.615236 2.000000 -2.000000 0.000000 -65.957031 0.664063 -19.609375 -51.278446 -1.538368 -1.940732 14.514538 64.421829 -1.115418 -2.000000 2.000000 0.000000 85.927734 -33.789063 -42.847229 133.068832 -2.475745 -2.721943 8.323312 -39.379738 -22.387041 -1.305212 -4.584704 9.313231 17.566584 -5.637469 -1.670777 -12.971599 14.948902 -3.344595 5.160004 -26.871126 -43.173901 18.991751 4.375491 1.697998 0.173110 -6.809886 22.727520 
8.982395 51.600464 -47.400421 173.652359 -176.708984 5.966236 22.022207 -9.952008 -5.160415 -18.027346 3.701172 0.849609 51.063168 8.107644 2.471410 -59.970699 -49.335934 -25.710533 2.000000 -2.000000 0.000000 -65.488281 0.947266 -19.345703 -51.279079 -1.637565 -1.964265 14.666383 64.453560 -0.784599 -2.000000 2.000000 0.000000 86.123047 -33.593750 -43.154297 133.084061 -2.475049 -2.565870 8.193062 -39.397980 -22.168451 -1.513444 -4.471848 9.497673 17.559973 -5.625688 -1.669238 -13.143972 15.453781 -3.410319 4.953234 -26.712912 -42.934372 19.001753 4.375582 1.698772 0.400016 -6.697293 22.607977 
9.128951 51.624092 -47.312477 173.652359 -176.855469 5.419386 22.230114 -9.872294 -5.316455 -18.027346 3.701172 0.849609 51.063168 8.107644 2.471410 -61.054691 -48.320305 -25.322268 2.000000 -2.000000 0.000000 -65.488281 0.957031 -19.511721 -51.279079 -1.637565 -1.964265 14.666383 64.453560 -0.784599 -2.000000 2.000000 0.000000 85.625000 -33.984379 -42.500000 133.082611 -2.410203 -2.503430 8.732036 -38.827236 -22.108368 -1.698557 -4.158583 9.680408 17.559973 -5.625690 -1.669239 -12.951383 15.606294 -3.738068 4.572343 -26.566196 -42.474796 19.001436 4.375549 1.708495 0.382602 -6.875555 22.125889 
9.284579 51.655605 -47.226032 173.652359 -176.855469 4.892043 22.262276 -9.944304 -5.541610 -18.193359 3.876953 0.869141 51.063168 8.107644 2.471410 -62.236328 -46.914059 -25.292967 2.000000 -2.000000 0.000000 -65.664063 0.927734 -19.658047 -51.454502 -1.529188 -1.951048 15.359618 64.289009 -0.296795 -2.000000 2.000000 0.000000 85.292969 -33.974606 -42.349205 133.259811 -2.484798 -2.566437 8.894901 -38.545715 -21.889795 -1.913704 -3.983348 9.349604 17.554424 -5.695267 -1.492933 -12.810856 16.144609 -4.267066 3.998201 -26.216331 -42.140976 18.799215 4.386066 1.675383 0.201353 -6.517488 21.870604 
9.461221 51.687111 -47.130447 173.662125 -177.031250 4.520979 22.460255 -10.016337 -5.766756 -18.193361 4.052734 0.908203 51.063168 8.107644 2.471410 -63.769535 -45.244137 -24.970705 2.000000 -2.000000 0.000000 -65.693359 0.937500 -19.833984 -51.445374 -1.628385 -1.974858 14.846455 64.456459 -0.455414 -2.000000 2.000000 0.000000 85.166016 -34.169922 -42.212521 133.259811 -2.484798 -2.566437 8.936993 -38.262936 -21.620661 -2.038654 -3.698562 10.236959 17.739080 -5.607287 -1.711446 -12.836680 15.799580 -4.256160 3.714891 -26.020069 -41.747219 18.790407 4.513174 1.693245 -0.130643 -6.619398 21.606958 
